# xmcd
#
# Track frame offsets:
#	150
#	6043
#	12745
#	21864
#	29017
#	33931
#	40897
#	80115
#	101167
#	152387
#	170052
#	184904
#	196660
#	221621
#
# Disc length: 3576 seconds
#
# Revision: 1
# Processed by: cddbd v1.5.2PL0 Copyright (c) Steve Scherf et al.
# Submitted via: EasyCDDAExtractor 12.0.0.1
#
DISCID=b70df60e
DTITLE=曹冠龍 - 《沉》選讀與組曲
DYEAR=2009
DGENRE=Speech
TTITLE0=撒了我一頭的花
TTITLE1=峽谷的風
TTITLE2=栽下了一株白蘭花
TTITLE3=一句大白話
TTITLE4=死不瞑目
TTITLE5=魂兮歸來
TTITLE6=阿信的夢囈
TTITLE7=包子的飛行
TTITLE8=好一朵茉莉花
TTITLE9=天馬行空
TTITLE10=阿董的迴游
TTITLE11=小景的末日
TTITLE12=貓娃們的遠遊
TTITLE13=紀念碑
EXTD=
EXTT0=
EXTT1=
EXTT2=
EXTT3=
EXTT4=
EXTT5=
EXTT6=
EXTT7=
EXTT8=
EXTT9=
EXTT10=
EXTT11=
EXTT12=
EXTT13=
PLAYORDER=
